# xmcd
#
# Track frame offsets: 
#        150
#        10830
#        25972
#        39480
#        53387
#        66655
#        80175
#        91740
#        102437
#        115927
#        127070
#        142175
#        153105
#        163772
#        177267
#        191960
#        209237
#        224532
#        240807
#        266027
#        283162
#        295917
#
# Disc length: 4169 seconds
#
# Revision: 3
# Processed by: cddbd v1.5.2PL0 Copyright (c) Steve Scherf et al.
# Submitted via: ExactAudioCopyFreeDBPlugin 1.0
#
DISCID=55104716
DTITLE=Etta James - Essential Disc 2
DYEAR=1993
DGENRE=Vocal
TTITLE0=In The Basement Part One (With Sugar Pie DeSanto)
TTITLE1=Loving You More Every Day
TTITLE2=Do I Make Myself Clear (With Sugar Pie DeSanto)
TTITLE3=I Prefer You
TTITLE4=It Must Be Your Love
TTITLE5=842-3089 (Call My Name)
TTITLE6=I'd Rather Go Blind
TTITLE7=Tell Mama
TTITLE8=Do Right Woman Do Right Man
TTITLE9=Security
TTITLE10=Almost Persuaded
TTITLE11=You Got It
TTITLE12=Miss Pitiful
TTITLE13=Losers Weepers Part One
TTITLE14=W.O.M.A.N.
TTITLE15=I Never Meant To Love Him
TTITLE16=You Can Leave Your Hat On
TTITLE17=God's Song (That's Why I Love Mankind)
TTITLE18=All The Way Down
TTITLE19=Lovin' Arms
TTITLE20=Feeling Uneasy
TTITLE21=Let's Burn Down The Cornfield
EXTD=MCA/Chess CHD2-9341
EXTT0=
EXTT1=
EXTT2=
EXTT3=
EXTT4=
EXTT5=
EXTT6=
EXTT7=
EXTT8=
EXTT9=
EXTT10=
EXTT11=
EXTT12=
EXTT13=
EXTT14=
EXTT15=
EXTT16=
EXTT17=
EXTT18=
EXTT19=
EXTT20=
EXTT21=
PLAYORDER=
